<svg width="19" height="18" viewBox="0 0 19 18" fill="none" xmlns="http://www.w3.org/2000/svg">
<path d="M12.4485 17.2424L12.5668 17.1241C12.6678 16.927 12.7249 16.7123 12.7973 16.5037C14.4906 11.4232 16.1842 6.34244 17.8773 1.26172C17.9453 1.08129 17.9102 0.883871 17.8215 0.717558L17.6839 0.579919C17.5176 0.487278 17.3177 0.452867 17.1355 0.520363C11.9741 2.24041 6.81285 3.96155 1.65139 5.6816C1.52479 5.72086 1.40038 5.76718 1.28039 5.82365L1.14165 5.96239C1.01636 6.17282 1.02606 6.43751 1.15907 6.64198L1.27774 6.76065C1.35604 6.7944 1.43347 6.83079 1.51552 6.85418C4.21271 7.50222 6.91476 8.13351 9.6104 8.78707C10.2657 11.4902 10.8988 14.1998 11.5486 16.9049C11.5669 16.9713 11.594 17.035 11.617 17.0999L11.7528 17.2358C11.962 17.3778 12.2363 17.3765 12.4485 17.2424ZM12.1969 14.6866C11.6697 12.5241 11.1661 10.3551 10.6445 8.19108C10.5959 7.9758 10.4208 7.80154 10.2057 7.75324C8.04189 7.2318 5.87298 6.72779 3.7109 6.20061C7.94131 4.78077 12.1781 3.37791 16.4101 1.9627C16.4162 1.96888 16.4284 1.98145 16.4346 1.98763C15.0196 6.2198 13.6167 10.4562 12.1969 14.6866Z" fill="#809EA0" stroke="#809EA0" stroke-width="0.7"/>
</svg>
