<svg width="479" height="69" viewBox="0 0 479 69" fill="none" xmlns="http://www.w3.org/2000/svg">
<rect x="28.8418" y="34.5361" width="6" height="15.1396" fill="#CCD8D9"/>
<rect x="0.841797" y="34.5361" width="6" height="15.1396" fill="#CCD8D9"/>
<rect x="140.842" y="44.8628" width="6" height="4.81294" fill="#CCD8D9"/>
<rect x="84.8418" y="34.5361" width="6" height="15.1396" fill="#CCD8D9"/>
<rect opacity="0.5" x="196.842" y="19.8682" width="6" height="29.8074" fill="#4D777A"/>
<rect opacity="0.5" width="6" height="29.8074" transform="matrix(-1 0 0 1 293.842 19.8682)" fill="#4D777A"/>
<rect opacity="0.5" x="392.842" y="19.8682" width="6" height="29.8074" fill="#4D777A"/>
<rect x="56.8418" y="44.8628" width="6" height="4.81294" fill="#CCD8D9"/>
<rect opacity="0.5" x="168.842" y="10.5928" width="6" height="39.083" fill="#4D777A"/>
<rect opacity="0.5" width="6" height="39.083" transform="matrix(-1 0 0 1 321.842 10.5928)" fill="#4D777A"/>
<rect opacity="0.5" x="364.842" y="10.5928" width="6" height="39.083" fill="#4D777A"/>
<rect x="112.842" y="44.8628" width="6" height="4.81294" fill="#CCD8D9"/>
<rect opacity="0.5" x="224.842" y="40.7915" width="6" height="8.88393" fill="#4D777A"/>
<rect opacity="0.5" width="6" height="8.88393" transform="matrix(-1 0 0 1 265.842 40.7915)" fill="#4D777A"/>
<rect opacity="0.5" x="420.842" y="40.7915" width="6" height="8.88393" fill="#4D777A"/>
<rect x="42.8418" y="34.5361" width="6" height="15.1396" fill="#CCD8D9"/>
<rect x="14.8418" y="44.8628" width="6" height="4.81294" fill="#CCD8D9"/>
<rect opacity="0.5" x="154.842" y="19.8682" width="6" height="29.8075" fill="#4D777A"/>
<rect opacity="0.5" width="6" height="29.8075" transform="matrix(-1 0 0 1 335.842 19.8682)" fill="#4D777A"/>
<rect opacity="0.5" x="350.842" y="19.8682" width="6" height="29.8075" fill="#4D777A"/>
<rect x="98.8418" y="44.8628" width="6" height="4.81294" fill="#CCD8D9"/>
<rect opacity="0.5" x="210.842" y="31.3008" width="6" height="18.375" fill="#4D777A"/>
<rect opacity="0.5" width="6" height="18.375" transform="matrix(-1 0 0 1 279.842 31.3008)" fill="#4D777A"/>
<rect opacity="0.5" x="406.842" y="31.3008" width="6" height="18.375" fill="#4D777A"/>
<rect x="70.8418" y="34.5361" width="6" height="15.1396" fill="#CCD8D9"/>
<rect opacity="0.5" x="182.842" y="10.5928" width="6" height="39.0826" fill="#4D777A"/>
<rect opacity="0.5" width="6" height="39.0826" transform="matrix(-1 0 0 1 307.842 10.5928)" fill="#4D777A"/>
<rect opacity="0.5" x="378.842" y="10.5928" width="6" height="39.0826" fill="#4D777A"/>
<rect x="126.842" y="44.8628" width="6" height="4.81294" fill="#CCD8D9"/>
<rect opacity="0.5" x="238.842" y="47.9102" width="6" height="1.76562" fill="#4D777A"/>
<rect opacity="0.5" width="6" height="1.76562" transform="matrix(-1 0 0 1 251.842 47.9102)" fill="#4D777A"/>
<rect opacity="0.5" x="434.842" y="47.9102" width="6" height="1.76562" fill="#4D777A"/>
<rect x="35.8418" y="26.9092" width="6" height="22.7666" fill="#CCD8D9"/>
<rect x="7.8418" y="39.2817" width="6" height="10.394" fill="#CCD8D9"/>
<rect opacity="0.5" x="147.842" y="26.9092" width="6" height="22.7664" fill="#4D777A"/>
<rect opacity="0.5" width="6" height="22.7664" transform="matrix(-1 0 0 1 342.842 26.9092)" fill="#4D777A"/>
<rect opacity="0.5" x="343.842" y="26.9092" width="6" height="22.7664" fill="#4D777A"/>
<rect x="91.8418" y="39.2817" width="6" height="10.394" fill="#CCD8D9"/>
<rect opacity="0.5" x="203.842" y="26.9092" width="6" height="22.7662" fill="#4D777A"/>
<rect opacity="0.5" width="6" height="22.7662" transform="matrix(-1 0 0 1 286.842 26.9092)" fill="#4D777A"/>
<rect opacity="0.5" x="399.842" y="26.9092" width="6" height="22.7662" fill="#4D777A"/>
<rect x="63.8418" y="39.2817" width="6" height="10.394" fill="#CCD8D9"/>
<rect opacity="0.5" x="175.842" y="0.67041" width="6" height="49.0053" fill="#4D777A"/>
<rect opacity="0.5" width="6" height="49.0053" transform="matrix(-1 0 0 1 314.842 0.67041)" fill="#4D777A"/>
<rect opacity="0.5" x="371.842" y="0.67041" width="6" height="49.0053" fill="#4D777A"/>
<rect x="119.842" y="44.8628" width="6" height="4.81294" fill="#CCD8D9"/>
<rect opacity="0.5" x="231.842" y="44.8628" width="6" height="4.81279" fill="#4D777A"/>
<rect opacity="0.5" width="6" height="4.81279" transform="matrix(-1 0 0 1 258.842 44.8628)" fill="#4D777A"/>
<rect opacity="0.5" x="427.842" y="44.8628" width="6" height="4.81279" fill="#4D777A"/>
<rect x="49.8418" y="39.2817" width="6" height="10.394" fill="#CCD8D9"/>
<rect x="21.8418" y="39.2817" width="6" height="10.394" fill="#CCD8D9"/>
<rect opacity="0.5" x="161.842" y="15.3384" width="6" height="34.3373" fill="#4D777A"/>
<rect opacity="0.5" width="6" height="34.3373" transform="matrix(-1 0 0 1 328.842 15.3384)" fill="#4D777A"/>
<rect opacity="0.5" x="357.842" y="15.3384" width="6" height="34.3373" fill="#4D777A"/>
<rect x="105.842" y="44.8628" width="6" height="4.81294" fill="#CCD8D9"/>
<rect opacity="0.5" x="217.842" y="36.9087" width="6" height="12.7666" fill="#4D777A"/>
<rect opacity="0.5" width="6" height="12.7666" transform="matrix(-1 0 0 1 272.842 36.9087)" fill="#4D777A"/>
<rect opacity="0.5" x="413.842" y="36.9087" width="6" height="12.7666" fill="#4D777A"/>
<rect x="77.8418" y="26.9092" width="6" height="22.7665" fill="#CCD8D9"/>
<rect opacity="0.5" x="189.842" y="15.3384" width="6" height="34.3372" fill="#4D777A"/>
<rect opacity="0.5" width="6" height="34.3372" transform="matrix(-1 0 0 1 300.842 15.3384)" fill="#4D777A"/>
<rect opacity="0.5" x="385.842" y="15.3384" width="6" height="34.3372" fill="#4D777A"/>
<rect x="133.842" y="44.8628" width="6" height="4.81294" fill="#CCD8D9"/>
<circle cx="458.842" cy="48.6548" r="19.5" fill="white" stroke="#00D47B"/>
<circle cx="458.842" cy="48.6548" r="4.92091" fill="#00D47B"/>
<circle cx="129.842" cy="48.6548" r="19.5" fill="white" stroke="#00D47B"/>
<circle cx="129.842" cy="48.6548" r="4.92091" fill="#00D47B"/>
</svg>
