<svg width="18" height="18" viewBox="0 0 18 18" fill="none" xmlns="http://www.w3.org/2000/svg">
<path d="M0.810547 17.4978C0.810547 15.7807 1.49265 14.134 2.70681 12.9198C3.92096 11.7057 5.56771 11.0236 7.28478 11.0236C9.00186 11.0236 10.6486 11.7057 11.8628 12.9198C13.0769 14.134 13.759 15.7807 13.759 17.4978H12.1405C12.1405 16.21 11.6289 14.9749 10.7183 14.0643C9.80765 13.1537 8.57259 12.6421 7.28478 12.6421C5.99698 12.6421 4.76192 13.1537 3.8513 14.0643C2.94068 14.9749 2.42911 16.21 2.42911 17.4978H0.810547ZM7.28478 10.2143C4.60202 10.2143 2.42911 8.04137 2.42911 5.35861C2.42911 2.67585 4.60202 0.50293 7.28478 0.50293C9.96754 0.50293 12.1405 2.67585 12.1405 5.35861C12.1405 8.04137 9.96754 10.2143 7.28478 10.2143ZM7.28478 8.59573C9.07329 8.59573 10.5219 7.14711 10.5219 5.35861C10.5219 3.5701 9.07329 2.12149 7.28478 2.12149C5.49628 2.12149 4.04766 3.5701 4.04766 5.35861C4.04766 7.14711 5.49628 8.59573 7.28478 8.59573ZM13.9889 11.5925C15.1262 12.1047 16.0913 12.9345 16.7684 13.9821C17.4454 15.0296 17.8055 16.2505 17.8054 17.4978H16.1869C16.187 16.5623 15.917 15.6466 15.4092 14.8608C14.9014 14.0751 14.1775 13.4527 13.3244 13.0686L13.9889 11.5925ZM13.4321 2.45572C14.2474 2.79181 14.9446 3.36255 15.4351 4.09551C15.9255 4.82847 16.1872 5.69061 16.1869 6.57253C16.1872 7.68313 15.7723 8.75372 15.0236 9.574C14.2748 10.3943 13.2465 10.905 12.1405 11.0058V9.37668C12.7401 9.2908 13.2964 9.01495 13.7277 8.58962C14.159 8.1643 14.4426 7.6119 14.5369 7.01353C14.6311 6.41516 14.5311 5.80233 14.2514 5.26502C13.9717 4.7277 13.5271 4.2942 12.9829 4.02815L13.4321 2.45572Z" fill="#7F9DA0"/>
</svg>
