<svg width="21" height="22" viewBox="0 0 21 22" fill="none" xmlns="http://www.w3.org/2000/svg">
<path d="M16.6856 15.4608L20.9695 19.7437L19.5542 21.1589L15.2713 16.8751C13.6777 18.1526 11.6956 18.8474 9.65319 18.8445C4.68419 18.8445 0.651367 14.8117 0.651367 9.84265C0.651367 4.87364 4.68419 0.84082 9.65319 0.84082C14.6222 0.84082 18.655 4.87364 18.655 9.84265C18.6579 11.8851 17.9631 13.8672 16.6856 15.4608ZM14.6792 14.7186C15.9486 13.4133 16.6575 11.6634 16.6546 9.84265C16.6546 5.97386 13.521 2.84123 9.65319 2.84123C5.78441 2.84123 2.65177 5.97386 2.65177 9.84265C2.65177 13.7104 5.78441 16.8441 9.65319 16.8441C11.474 16.8469 13.2238 16.138 14.5292 14.8687L14.6792 14.7186Z" fill="white"/>
</svg>
