<svg width="19" height="20" viewBox="0 0 19 20" fill="none" xmlns="http://www.w3.org/2000/svg">
<path d="M10.4066 9.99998V10.15H10.5566H14.0399V11.6761H8.8899V5.58456H10.4066V9.99998ZM9.64823 18.9808C4.71511 18.9808 0.714941 14.9608 0.714941 9.99998C0.714941 5.03912 4.71511 1.01914 9.64823 1.01914C14.5814 1.01914 18.5815 5.03912 18.5815 9.99998C18.5815 14.9608 14.5814 18.9808 9.64823 18.9808ZM9.64823 17.4547C11.6155 17.4547 13.502 16.6691 14.8929 15.271C16.2837 13.8729 17.0649 11.9768 17.0649 9.99998C17.0649 8.02313 16.2837 6.12709 14.8929 4.72901C13.502 3.3309 11.6155 2.54531 9.64823 2.54531C7.68096 2.54531 5.79443 3.3309 4.4036 4.72901C3.0128 6.12709 2.2316 8.02313 2.2316 9.99998C2.2316 11.9768 3.0128 13.8729 4.4036 15.271C5.79443 16.6691 7.68096 17.4547 9.64823 17.4547Z" fill="#809EA0" stroke="#809EA0" stroke-width="0.3"/>
</svg>
