<svg width="23" height="24" viewBox="0 0 23 24" fill="none" xmlns="http://www.w3.org/2000/svg">
<path d="M11.9954 14.9498V17.2934C10.9805 16.9346 9.89426 16.8245 8.82799 16.9725C7.76172 17.1204 6.74651 17.522 5.86762 18.1436C4.98873 18.7652 4.27181 19.5886 3.77709 20.5447C3.28236 21.5008 3.02426 22.5616 3.02447 23.6381L0.781739 23.637C0.781391 22.2677 1.09451 20.9164 1.69711 19.6868C2.2997 18.4572 3.17578 17.3819 4.25822 16.5433C5.34065 15.7046 6.6007 15.1248 7.94183 14.8484C9.28296 14.572 10.6696 14.6063 11.9954 14.9486V14.9498ZM9.75266 13.5458C6.03534 13.5458 3.02447 10.5349 3.02447 6.81761C3.02447 3.10028 6.03534 0.0894165 9.75266 0.0894165C13.47 0.0894165 16.4809 3.10028 16.4809 6.81761C16.4809 10.5349 13.47 13.5458 9.75266 13.5458ZM9.75266 11.3031C12.2309 11.3031 14.2381 9.29583 14.2381 6.81761C14.2381 4.33939 12.2309 2.33215 9.75266 2.33215C7.27445 2.33215 5.2672 4.33939 5.2672 6.81761C5.2672 9.29583 7.27445 11.3031 9.75266 11.3031ZM18.071 18.0313H22.0922V20.274H18.071L20.1219 22.3239L18.5363 23.9106L13.7784 19.1526L18.5363 14.3947L20.1219 15.9814L18.071 18.0313Z" fill="white"/>
</svg>
