<svg width="488" height="63" viewBox="0 0 488 63" fill="none" xmlns="http://www.w3.org/2000/svg">
<line x1="0.310547" y1="43.2695" x2="448.32" y2="43.2695" stroke="#DFEBEC" stroke-width="5"/>
<line x1="127.053" y1="43.2695" x2="467.05" y2="43.2696" stroke="#00D47B" stroke-width="5"/>
<path d="M112.181 12.7832H114.485V1.1192H110.629V3.1832H112.181V12.7832ZM116.73 9.5032C116.858 11.2152 118.042 12.7992 120.522 12.7992C123.61 12.7992 124.49 10.6552 124.49 6.6872C124.49 2.9912 123.514 0.847202 120.346 0.847202C117.882 0.847202 116.41 2.3832 116.41 4.7192C116.41 7.1832 118.026 8.4472 120.042 8.4472C121.066 8.4472 122.01 8.0472 122.506 7.3592C122.506 9.9832 121.93 10.9592 120.618 10.9592C119.578 10.9592 118.986 10.4312 118.81 9.5032H116.73ZM120.506 6.6232C119.146 6.6232 118.554 5.7592 118.554 4.7032C118.554 3.5352 119.258 2.7512 120.426 2.7512C121.562 2.7512 122.298 3.4552 122.298 4.7352C122.298 5.8712 121.626 6.6232 120.506 6.6232ZM127.705 6.6072C126.553 7.0872 125.833 8.0952 125.833 9.4712C125.833 11.6952 127.657 13.0392 130.041 13.0392C132.441 13.0392 134.265 11.6952 134.265 9.4712C134.265 8.1112 133.545 7.1032 132.393 6.6072C133.305 6.1432 133.977 5.2632 133.977 4.0312C133.977 2.3672 132.697 0.895203 130.041 0.895203C127.385 0.895203 126.105 2.3512 126.105 4.0312C126.105 5.2952 126.745 6.1112 127.705 6.6072ZM130.041 5.9512C129.033 5.9512 128.297 5.3272 128.297 4.3672C128.297 3.2792 129.001 2.7032 130.041 2.7032C131.113 2.7032 131.801 3.2952 131.801 4.3512C131.801 5.3112 131.065 5.9512 130.041 5.9512ZM130.041 7.5832C131.241 7.5832 132.073 8.2232 132.073 9.3752C132.073 10.3992 131.321 11.1832 130.041 11.1832C128.761 11.1832 127.993 10.4152 127.993 9.3752C127.993 8.1912 128.873 7.5832 130.041 7.5832ZM136.162 1.0872V7.9352H138.306C138.546 7.2152 139.138 6.7032 140.066 6.7032C141.33 6.7032 141.986 7.4232 141.986 8.7352C141.986 9.9672 141.394 10.8952 140.082 10.8952C138.994 10.8952 138.338 10.3032 138.146 9.4872H135.97C136.162 11.3912 137.602 12.7832 140.114 12.7832C142.77 12.7832 144.146 11.0872 144.146 8.7032C144.146 6.8952 143.218 4.8472 140.498 4.8472C139.522 4.8472 138.642 5.2632 138.21 5.7912V3.0552H143.394V1.0872H136.162Z" fill="#00D47B"/>
<path d="M451.143 11.0072C454.759 8.50054 456.567 6.42054 456.567 4.7672C456.567 4.26587 456.444 3.8712 456.199 3.5832C455.964 3.2952 455.591 3.1512 455.079 3.1512C454.023 3.1512 453.463 3.8712 453.399 5.3112H451.207C451.271 3.97787 451.676 2.96987 452.423 2.2872C453.169 1.59387 454.113 1.2472 455.255 1.2472C456.417 1.2472 457.308 1.5512 457.927 2.1592C458.556 2.75654 458.871 3.55654 458.871 4.5592C458.871 5.34854 458.636 6.1432 458.167 6.9432C457.708 7.73254 457.121 8.4632 456.407 9.1352C455.692 9.79654 454.94 10.3672 454.151 10.8472H459.095V12.6872H451.143V11.0072ZM459.885 7.0392C459.885 10.8685 461.325 12.7832 464.205 12.7832C465.731 12.7832 466.829 12.2712 467.501 11.2472C468.173 10.2232 468.509 8.82054 468.509 7.0392C468.509 5.26854 468.173 3.8712 467.501 2.8472C466.829 1.8232 465.731 1.3112 464.205 1.3112C461.325 1.3112 459.885 3.22054 459.885 7.0392ZM466.285 7.0392C466.285 8.20187 466.141 9.09787 465.853 9.7272C465.576 10.3459 465.027 10.6552 464.205 10.6552C463.373 10.6552 462.813 10.3459 462.525 9.7272C462.248 9.09787 462.109 8.20187 462.109 7.0392C462.109 5.8872 462.248 5.00187 462.525 4.3832C462.813 3.75387 463.373 3.4392 464.205 3.4392C465.027 3.4392 465.576 3.75387 465.853 4.3832C466.141 5.00187 466.285 5.8872 466.285 7.0392ZM469.355 11.0072C472.971 8.50054 474.779 6.42054 474.779 4.7672C474.779 4.26587 474.656 3.8712 474.411 3.5832C474.176 3.2952 473.803 3.1512 473.291 3.1512C472.235 3.1512 471.675 3.8712 471.611 5.3112H469.419C469.483 3.97787 469.888 2.96987 470.635 2.2872C471.381 1.59387 472.325 1.2472 473.467 1.2472C474.629 1.2472 475.52 1.5512 476.139 2.1592C476.768 2.75654 477.083 3.55654 477.083 4.5592C477.083 5.34854 476.848 6.1432 476.379 6.9432C475.92 7.73254 475.333 8.4632 474.619 9.1352C473.904 9.79654 473.152 10.3672 472.363 10.8472H477.307V12.6872H469.355V11.0072ZM477.537 3.5992V1.4872H481.601V12.7832H479.233V3.5992H477.537Z" fill="#00D47B"/>
<circle cx="127.053" cy="42.7695" r="19.5" fill="white" stroke="#00D47B"/>
<circle cx="467.051" cy="42.7695" r="19.5" fill="white" stroke="#00D47B"/>
<circle cx="127.053" cy="42.7686" r="4.92091" fill="#00D47B"/>
<circle cx="467.052" cy="42.7686" r="4.92091" fill="#00D47B"/>
</svg>
